<svg width="88" height="94" viewBox="0 0 88 94" fill="none" xmlns="http://www.w3.org/2000/svg">
<g filter="url(#filter0_d_1154_57)">
<path fill-rule="evenodd" clip-rule="evenodd" d="M68.1896 31.1196C69.9635 31.0094 71.3333 29.5559 71.3333 27.816V20.0416C71.3333 15.791 67.8078 12.3333 63.4739 12.3333L47.7201 12.3333C45.8791 12.3333 44.3867 13.8256 44.3867 15.6666V16.738C44.3867 18.566 42.8822 20.0416 41.0184 20.0416C39.1546 20.0416 37.6501 18.566 37.6501 16.738V15.6666C37.6501 13.8256 36.1577 12.3333 34.3168 12.3333L24.1927 12.3333C19.8588 12.3333 16.3333 15.791 16.3333 20.0416V66.2916C16.3333 70.5422 19.8588 73.9999 24.1927 73.9999H34.3168C36.1577 73.9999 37.6501 72.5075 37.6501 70.6666V69.5952C37.6501 67.7672 39.1546 66.2916 41.0184 66.2916C42.8822 66.2916 44.3867 67.7672 44.3867 69.5952V70.6666C44.3867 72.5075 45.8791 73.9999 47.7201 73.9999L63.4739 73.9999C67.8078 73.9999 71.3333 70.5422 71.3333 66.2916V58.5172C71.3333 56.7773 69.9635 55.3237 68.1896 55.2136C61.7673 54.8172 56.7372 49.5094 56.7372 43.1666C56.7372 36.8237 61.7673 31.516 68.1896 31.1196ZM41.0184 59.6844C42.8822 59.6844 44.3867 58.2088 44.3867 56.3809V49.7737C44.3867 47.9457 42.8822 46.4701 41.0184 46.4701C39.1546 46.4701 37.6501 47.9457 37.6501 49.7737V56.3809C37.6501 58.2088 39.1546 59.6844 41.0184 59.6844ZM41.0184 39.863C42.8822 39.863 44.3867 38.3874 44.3867 36.5594V29.9523C44.3867 28.1243 42.8822 26.6487 41.0184 26.6487C39.1546 26.6487 37.6501 28.1243 37.6501 29.9523V36.5594C37.6501 38.3874 39.1546 39.863 41.0184 39.863Z" fill="white"/>
</g>
<g filter="url(#filter1_d_1154_57)">
<path fill-rule="evenodd" clip-rule="evenodd" d="M37.7296 68.8767C31.6902 62.3403 28 53.601 28 43.9999C28 34.1369 31.8942 25.1835 38.229 18.5932C38.8342 19.4681 39.8565 20.0416 41.0184 20.0416C42.8822 20.0416 44.3868 18.566 44.3868 16.738V15.6666C44.3868 13.8256 45.8791 12.3333 47.7201 12.3333L63.4739 12.3333C67.8078 12.3333 71.3333 15.791 71.3333 20.0416V27.816C71.3333 29.5559 69.9636 31.0094 68.1896 31.1196C61.7673 31.516 56.7373 36.8237 56.7373 43.1666C56.7373 49.5094 61.7673 54.8172 68.1896 55.2136C69.9636 55.3237 71.3333 56.7773 71.3333 58.5172V66.2916C71.3333 70.5422 67.8078 73.9999 63.4739 73.9999L47.7201 73.9999C45.8791 73.9999 44.3867 72.5075 44.3867 70.6666V69.5952C44.3867 67.7672 42.8822 66.2916 41.0184 66.2916C39.4063 66.2916 38.063 67.3956 37.7296 68.8767ZM44.3867 56.3809C44.3867 58.2088 42.8822 59.6844 41.0184 59.6844C39.1546 59.6844 37.6501 58.2088 37.6501 56.3809V49.7737C37.6501 47.9457 39.1546 46.4701 41.0184 46.4701C42.8822 46.4701 44.3867 47.9457 44.3867 49.7737V56.3809ZM44.3868 36.5594C44.3867 38.3874 42.8822 39.863 41.0184 39.863C39.1546 39.863 37.6501 38.3874 37.6501 36.5594V29.9523C37.6501 28.1243 39.1546 26.6487 41.0184 26.6487C42.8822 26.6487 44.3868 28.1243 44.3868 29.9523V36.5594Z" fill="#FF8036"/>
</g>
<defs>
<filter id="filter0_d_1154_57" x="0.333313" y="0.333252" width="87.0001" height="93.6667" filterUnits="userSpaceOnUse" color-interpolation-filters="sRGB">
<feFlood flood-opacity="0" result="BackgroundImageFix"/>
<feColorMatrix in="SourceAlpha" type="matrix" values="0 0 0 0 0 0 0 0 0 0 0 0 0 0 0 0 0 0 127 0" result="hardAlpha"/>
<feOffset dy="4"/>
<feGaussianBlur stdDeviation="8"/>
<feComposite in2="hardAlpha" operator="out"/>
<feColorMatrix type="matrix" values="0 0 0 0 1 0 0 0 0 1 0 0 0 0 1 0 0 0 0.1 0"/>
<feBlend mode="normal" in2="BackgroundImageFix" result="effect1_dropShadow_1154_57"/>
<feBlend mode="normal" in="SourceGraphic" in2="effect1_dropShadow_1154_57" result="shape"/>
</filter>
<filter id="filter1_d_1154_57" x="12" y="0.333252" width="75.3334" height="93.6667" filterUnits="userSpaceOnUse" color-interpolation-filters="sRGB">
<feFlood flood-opacity="0" result="BackgroundImageFix"/>
<feColorMatrix in="SourceAlpha" type="matrix" values="0 0 0 0 0 0 0 0 0 0 0 0 0 0 0 0 0 0 127 0" result="hardAlpha"/>
<feOffset dy="4"/>
<feGaussianBlur stdDeviation="8"/>
<feComposite in2="hardAlpha" operator="out"/>
<feColorMatrix type="matrix" values="0 0 0 0 1 0 0 0 0 0.501961 0 0 0 0 0.211765 0 0 0 0.25 0"/>
<feBlend mode="normal" in2="BackgroundImageFix" result="effect1_dropShadow_1154_57"/>
<feBlend mode="normal" in="SourceGraphic" in2="effect1_dropShadow_1154_57" result="shape"/>
</filter>
</defs>
</svg>
